<svg id="svg" xmlns="http://www.w3.org/2000/svg" xmlns:xlink="http://www.w3.org/1999/xlink" width="400" height="400" viewBox="0, 0, 400,400"><g id="svgg"><path id="path0" d="M307.057 98.145 C 303.023 101.540,301.757 105.284,298.098 124.639 C 296.172 134.828,294.494 143.247,294.369 143.350 C 294.243 143.452,286.055 146.222,276.172 149.506 C 252.389 157.406,250.009 159.035,250.003 167.422 C 249.997 175.181,253.175 178.143,269.038 185.160 L 281.299 190.583 290.259 184.766 C 295.187 181.567,299.219 178.819,299.219 178.661 C 299.219 178.503,293.756 175.944,287.080 172.976 L 274.942 167.578 291.572 162.234 C 300.719 159.295,308.443 156.658,308.735 156.375 C 309.028 156.091,310.537 148.652,312.087 139.844 C 313.638 131.035,314.986 123.548,315.083 123.206 C 315.180 122.863,318.920 128.611,323.394 135.979 C 327.869 143.347,332.004 149.557,332.584 149.780 C 333.163 150.002,340.739 148.407,349.420 146.235 C 358.100 144.063,365.293 142.376,365.403 142.486 C 365.513 142.596,360.696 148.639,354.698 155.914 C 348.701 163.188,343.784 169.584,343.772 170.125 C 343.760 170.667,346.940 177.482,350.838 185.270 C 354.737 193.058,357.461 199.252,356.893 199.035 C 352.754 197.454,334.120 192.182,333.800 192.502 C 333.228 193.074,335.700 209.458,336.468 210.183 C 338.116 211.738,361.446 217.968,365.564 217.952 C 381.426 217.889,382.752 209.515,370.737 185.276 C 365.995 175.708,363.484 169.811,363.914 169.249 C 364.288 168.760,369.694 162.166,375.927 154.596 C 387.959 139.984,390.663 135.582,391.230 129.685 C 392.262 118.944,384.834 117.880,357.796 124.894 L 340.202 129.458 332.796 117.326 C 319.439 95.444,314.575 91.819,307.057 98.145 M47.854 176.141 C 35.251 180.078,24.939 193.091,24.718 205.338 C 24.551 214.540,26.344 217.628,40.067 231.780 C 55.448 247.640,56.466 252.897,45.242 258.505 C 36.747 262.751,29.042 259.119,26.855 249.838 L 26.172 246.941 17.969 251.654 C 7.532 257.651,8.053 257.004,9.628 261.998 C 17.243 286.156,56.977 281.427,68.867 254.947 C 74.772 241.797,70.301 228.923,54.805 214.453 C 45.377 205.650,42.963 200.612,45.666 195.384 C 48.888 189.153,59.943 191.374,64.554 199.179 C 66.287 202.113,65.625 202.376,74.171 195.362 C 82.536 188.496,82.546 188.446,76.703 182.764 C 69.286 175.552,58.020 172.965,47.854 176.141 M294.922 183.696 C 290.625 187.136,286.824 190.229,286.476 190.570 C 285.875 191.157,275.019 267.186,275.006 270.898 C 275.000 272.620,275.186 272.656,283.984 272.656 C 288.926 272.656,292.970 272.393,292.971 272.070 C 292.977 270.581,297.656 237.240,297.892 237.004 C 298.039 236.857,303.759 244.802,310.603 254.660 L 323.047 272.583 333.398 272.620 C 339.092 272.640,343.750 272.430,343.750 272.153 C 343.750 271.679,338.699 264.579,319.873 238.592 L 311.891 227.575 321.571 217.313 C 326.894 211.668,331.253 206.431,331.258 205.674 C 331.270 203.443,327.906 188.277,327.409 188.322 C 327.158 188.345,321.152 195.032,314.063 203.182 C 306.973 211.332,301.068 217.516,300.940 216.923 C 300.813 216.330,301.428 207.930,302.308 198.256 C 304.090 178.645,304.154 177.323,303.320 177.393 C 302.998 177.420,299.219 180.257,294.922 183.696 M106.275 202.395 C 82.555 208.605,75.283 225.974,69.912 289.258 L 69.398 295.313 77.224 295.313 C 86.461 295.313,85.446 296.823,86.776 281.102 L 87.746 269.625 90.576 271.069 C 107.065 279.481,130.093 274.459,140.975 260.077 C 164.777 228.622,143.186 192.731,106.275 202.395 M187.627 202.338 C 149.781 215.953,148.618 268.269,186.027 274.294 C 194.720 275.694,207.273 272.474,208.180 268.612 C 208.862 265.707,211.719 251.435,211.719 250.933 C 211.719 250.681,210.576 251.560,209.180 252.888 C 200.008 261.603,185.598 260.881,179.194 251.384 C 165.462 231.021,194.845 204.515,211.147 222.559 C 217.118 229.168,218.007 236.892,214.904 255.198 C 211.608 274.644,210.992 272.656,220.313 272.656 C 224.611 272.656,228.125 272.329,228.125 271.929 C 228.125 271.530,229.160 264.586,230.424 256.500 C 234.731 228.957,234.543 226.415,227.436 215.990 C 218.376 202.702,202.115 197.125,187.627 202.338 M251.755 204.492 C 247.666 207.265,242.483 213.588,241.031 217.574 C 240.094 220.145,233.594 267.196,233.594 271.405 C 233.594 272.729,249.194 273.392,249.238 272.070 C 249.249 271.748,250.949 260.319,253.016 246.672 C 257.501 217.058,257.088 217.969,266.045 217.969 L 271.661 217.969 272.611 211.914 C 273.133 208.584,273.747 205.068,273.975 204.102 C 274.681 201.097,256.284 201.421,251.755 204.492 M124.778 219.219 C 139.110 227.527,136.733 248.051,120.521 255.983 C 110.407 260.931,99.373 256.602,94.446 245.754 C 87.149 229.689,109.344 210.273,124.778 219.219 " stroke="none" fill="#000000" fill-rule="evenodd"></path></g></svg>